PathFileType	4	(X/Y/Z)	RBDS023\RBDS023runT25.trc
DataRate	CameraRate	NumFrames	NumMarkers	Units	OrigDataRate	OrigDataStartFrame	OrigNumFrames
150.000000	150.000000	4	33	mm	150.000000	2250	4500
Frame#	Time	L.ASIS			L.Heel.Bottom			L.Heel.Lateral			L.Heel.Top			L.Iliac.Crest			L.MT1			L.MT5			L.PSIS			L.Shank.Bottom.Lateral			L.Shank.Bottom.Medial			L.Shank.Top.Lateral			L.Shank.Top.Medial			L.Thigh.Bottom.Lateral			L.Thigh.Bottom.Medial			L.Thigh.Top.Lateral			L.Thigh.Top.Medial			R.ASIS			R.ASY			R.Heel.Bottom			R.Heel.Lateral			R.Heel.Top			R.Iliac.Crest			R.MT1			R.MT5			R.PSIS			R.Shank.Bottom.Lateral			R.Shank.Bottom.Medial			R.Shank.Top.Lateral			R.Shank.Top.Medial			R.Thigh.Bottom.Lateral			R.Thigh.Bottom.Medial			R.Thigh.Top.Lateral			R.Thigh.Top.Medial			
		X1	Y1	Z1	X2	Y2	Z2	X3	Y3	Z3	X4	Y4	Z4	X5	Y5	Z5	X6	Y6	Z6	X7	Y7	Z7	X8	Y8	Z8	X9	Y9	Z9	X10	Y10	Z10	X11	Y11	Z11	X12	Y12	Z12	X13	Y13	Z13	X14	Y14	Z14	X15	Y15	Z15	X16	Y16	Z16	X17	Y17	Z17	X18	Y18	Z18	X19	Y19	Z19	X20	Y20	Z20	X21	Y21	Z21	X22	Y22	Z22	X23	Y23	Z23	X24	Y24	Z24	X25	Y25	Z25	X26	Y26	Z26	X27	Y27	Z27	X28	Y28	Z28	X29	Y29	Z29	X30	Y30	Z30	X31	Y31	Z31	X32	Y32	Z32	X33	Y33	Z33	

2251	15	2367.099527734227	972.9849510384086	877.2342805845785	1983.314848489561	363.2313797671648	896.975032496989	2018.250123457507	348.5645192520557	860.4672000933471	2029.089177800292	373.5796693775175	903.4807395239385	2297.944134909935	1044.576595643083	822.157870849243	2083.407052984242	164.4969222616725	935.1421409401571	2073.288011165924	195.6098924208106	822.8310842088322	2186.609983450254	1013.934619077096	915.3998901173331	2143.881875035457	350.430093054553	849.0680589800119	2121.726374578733	389.426350005803	873.426363246232	2211.080695035938	394.3352223040055	835.3872139158663	2192.38691507086	434.9433759057235	863.685519702268	2411.370214968526	643.5885250580405	809.007978272032	2352.261205999469	615.2420191806427	836.7088539858058	2359.256450591193	740.5686747558213	804.2299635297904	2303.075613007985	714.1544123376898	832.618683904511	2353.377102615471	983.5164144585757	1095.504341174244	2224.815120017036	77.93795759156703	988.6716361669361	2031.523947393281	33.37112552543284	975.8827296153781	2059.994491394511	49.73889232935932	1020.483346783048	2044.817037097785	79.94322240410597	976.4309309640755	2268.956778753343	1052.343655279607	1134.020083632334	2257.978814540099	38.16489965477211	939.9901272584891	2224.119761993471	32.54844074611974	1055.760332333065	2177.807504755981	1026.092975624607	1020.894857785677	2158.339566906277	151.7610707405255	1044.756343886097	2113.941983914413	177.5930819019756	1022.418391237601	2183.109658716958	223.5433473872962	1074.128437956251	2140.172017545793	247.7328309782969	1050.820033848219	2289.487375640342	591.1435562099045	1125.620166009714	2234.973727387904	583.4355763151981	1077.521041736765	2259.104845206938	695.9991880724576	1138.617095786082	2209.322606462405	689.3122194858364	1090.927966037687	
2252	15.00666666666667	2367.347181320099	977.3186501215849	877.3659427362592	1995.353106940912	347.4514785930368	895.9374227869588	2031.132872373865	334.4468464654887	859.5397065271497	2040.460943281021	360.4031618198134	902.5129981014123	2298.399343595434	1049.308929351184	822.4259165029495	2106.37050245365	154.7879985716989	934.9516630137716	2094.520656955894	184.7087772767407	822.5643335327516	2187.036104163249	1018.577214320788	915.7074631440563	2156.884049329333	343.1159198951063	848.5987941134765	2132.758352840934	381.0226640613466	872.8187558718002	2221.991520707045	390.1003221785935	835.0919933791554	2201.215833421576	429.8230147289754	863.2071690583837	2415.702994700457	650.3389880304522	809.1192303965639	2357.339473117044	620.8610732907154	837.1646369852771	2361.517792561532	746.1472328118937	803.9970072685786	2305.896946690604	718.6165803924979	832.4496869004583	2353.720558470646	985.9269519026512	1095.375293212603	2208.543388498723	78.59732386926729	988.9084479020357	2014.769683069511	35.5766177832791	975.9194036329055	2043.355086971478	51.56239533867513	1020.61337671169	2028.38204138462	82.06383681341663	976.7145206279633	2271.982556246342	1056.55023467835	1134.308248191456	2240.904447331224	38.04385232472024	939.8716359671113	2207.143843138072	32.78617088573174	1055.53276637803	2178.507023070617	1030.301343660707	1021.646645677968	2142.16749683296	154.2017657291016	1044.732623856132	2098.105813904368	180.1534803619707	1022.019194371262	2167.525837162928	226.0147242358509	1073.450607021178	2124.535789860123	250.221898306691	1050.440822975542	2279.302617076976	593.6868387600055	1124.144972565585	2224.554662538659	587.7937421512706	1076.100363213305	2252.123048471727	699.3357360909553	1137.488728473032	2202.135013517796	694.3188429191339	1089.899530382549	
2253	15.01333333333333	2367.864661301111	982.0425195234992	877.5995253467058	2008.019301086251	330.7492442332896	895.3726288338833	2044.42457881384	319.5988184680431	858.966739359133	2052.296217655472	346.3481355834091	901.9391255005032	2299.163836115672	1054.535049255571	822.7824907578184	2130.13849562425	144.9786099900569	934.8745886754949	2116.348602442249	173.6751839931545	822.4694806098839	2187.695347162616	1023.691427417923	916.1351579689739	2169.961369976031	335.4400948441742	848.3349563100229	2143.871390087715	372.0296964791648	872.5717302233847	2232.674131734384	385.5889959748959	835.0086918085786	2209.828346521298	424.1986877502862	863.0914612576839	2419.613335996563	657.2807570361487	809.2687858452905	2361.983901892542	626.8656541196711	837.7810089094795	2363.572356473039	751.9847861864953	803.7043711220307	2308.522700560316	723.5218729590259	832.3389806114291	2354.336392815198	988.7381398781868	1095.256616083961	2192.586372457918	79.36272345416828	989.1878784484719	1998.193390687694	38.56567978829577	975.9418632629956	2026.93749166354	54.04869676687723	1020.748046812106	2012.271880118525	84.90427525759746	976.9964055620778	2275.42827768876	1061.145158718708	1134.587662122398	2223.810828045182	37.99144880089876	939.783180461919	2190.152273685166	33.09627216523435	1055.264286212502	2179.474671793838	1034.865893664384	1022.587348896655	2126.193788278042	157.2442161416469	1044.698171658415	2082.43843905427	183.2653971133558	1021.588767519435	2152.060773212927	229.1220784600704	1072.76929901424	2108.985019555433	253.3020443650408	1050.021904488841	2269.057454652258	596.9080597775793	1122.525283387978	2214.196871103692	592.9638935116567	1074.461841951062	2245.271559956765	703.2560611355458	1136.228936580384	2195.152166565403	700.0463442915467	1088.713789315047	
2254	15.02	2368.650002912071	987.1151602064963	877.9270424850548	2021.443024880603	313.2466588560002	895.2783664443137	2058.239871457539	304.1338655254589	858.7569382664065	2064.71925082484	331.5088661650124	901.7651566945958	2300.196162501043	1060.215278215486	823.2195115250539	2154.675094772098	135.1916810305212	934.8570752439348	2138.780999428135	162.6483019419431	822.499021580665	2188.571734306665	1029.218291111904	916.6727454188643	2183.169568081915	327.4109011829309	848.2842392143805	2155.159791907322	362.4703045308605	872.681491641076	2243.1721303739	380.7632709728366	835.1245381178371	2218.311279539661	418.0399703841435	863.3267270869567	2423.101330666885	664.300576938374	809.4499520075667	2366.168557421288	633.1477404190634	838.5209566069055	2365.447761176827	758.0000868783092	803.3738823115434	2310.960976696972	728.7957905195602	832.2965664112428	2355.215274327827	991.919985118669	1095.140583166893	2176.998447086307	80.17968207010441	989.511514413568	1981.870322761227	42.44606581735128	975.9449831255894	2010.81543864843	57.28033053930047	1020.88353605994	1996.590182038075	88.55199518760857	977.2695409292274	2279.240654827405	1066.076069721222	1134.852447246376	2206.723472179204	37.98095730627944	939.7435429282749	2173.155419412692	33.46631411382008	1054.967809475645	2180.701637695207	1039.749725257152	1023.696194117049	2110.51790480317	160.909250114228	1044.668538701687	2067.037481248787	186.9499934798602	1021.140085686122	2136.803429831055	232.8812518108673	1072.117455308447	2093.632484265884	256.9984474616422	1049.554580157168	2258.849650365659	600.8093452547913	1120.815256212893	2203.987152798751	598.9155913013584	1072.679681477123	2238.62932336988	707.7502132722267	1134.871871945984	2188.436572455108	706.4575436420753	1087.424536608479	
